HIERARCHY
ROOT Hips
{
	OFFSET -14.64140 90.27770 -84.91600
	CHANNELS 6 Xposition Yposition Zposition Zrotation Xrotation Yrotation
	JOINT Spine
	{
		OFFSET 0.00000 13.20850 -1.60436
		CHANNELS 3 Zrotation Xrotation Yrotation
		JOINT Spine1
		{
			OFFSET 0.00000 8.61716 0.00000
			CHANNELS 3 Zrotation Xrotation Yrotation
			JOINT Spine2
			{
				OFFSET 0.00000 8.61717 0.00000
				CHANNELS 3 Zrotation Xrotation Yrotation
				JOINT Spine3
				{
					OFFSET 0.00000 8.61717 0.00000
					CHANNELS 3 Zrotation Xrotation Yrotation
					JOINT Neck
					{
						OFFSET 0.00000 11.07920 1.10792
						CHANNELS 3 Zrotation Xrotation Yrotation
						JOINT Neck1
						{
							OFFSET 0.00000 7.08032 0.00000
							CHANNELS 3 Zrotation Xrotation Yrotation
							JOINT Head
							{
								OFFSET 0.00000 7.08031 0.00000
								CHANNELS 3 Zrotation Xrotation Yrotation
								End site
								{
									OFFSET 0.00000 0.00000 0.00000
								}
							}
						}
					}
					JOINT RightShoulder
					{
						OFFSET -0.01000 7.91373 5.19711
						CHANNELS 3 Zrotation Xrotation Yrotation
						JOINT RightArm
						{
							OFFSET -18.41580 0.00000 0.00000
							CHANNELS 3 Zrotation Xrotation Yrotation
							JOINT RightForeArm
							{
								OFFSET -29.11090 0.00000 0.00000
								CHANNELS 3 Zrotation Xrotation Yrotation
								JOINT RightHand
								{
									OFFSET -24.65040 0.00000 0.00000
									CHANNELS 3 Zrotation Xrotation Yrotation
									JOINT RightHandThumb1
									{
										OFFSET -5.35114 -0.85590 3.97906
										CHANNELS 3 Zrotation Xrotation Yrotation
										JOINT RightHandThumb2
										{
											OFFSET -4.52789 0.00000 0.00000
											CHANNELS 3 Zrotation Xrotation Yrotation
											JOINT RightHandThumb3
											{
												OFFSET -2.46976 0.00000 0.00000
												CHANNELS 3 Zrotation Xrotation Yrotation
												End site
												{
													OFFSET 0.00000 0.00000 0.00000
												}
											}
										}
									}
									JOINT RightHandIndex1
									{
										OFFSET -14.26970 0.00000 2.88139
										CHANNELS 3 Zrotation Xrotation Yrotation
										JOINT RightHandIndex2
										{
											OFFSET -5.48836 0.00000 0.00000
											CHANNELS 3 Zrotation Xrotation Yrotation
											JOINT RightHandIndex3
											{
												OFFSET -3.01859 0.00000 0.00000
												CHANNELS 3 Zrotation Xrotation Yrotation
												End site
												{
													OFFSET 0.00000 0.00000 0.00000
												}
											}
										}
									}
									JOINT RightHandMiddle1
									{
										OFFSET -14.26970 0.00000 -0.09147
										CHANNELS 3 Zrotation Xrotation Yrotation
										JOINT RightHandMiddle2
										{
											OFFSET -6.17441 0.00000 0.00000
											CHANNELS 3 Zrotation Xrotation Yrotation
											JOINT RightHandMiddle3
											{
												OFFSET -3.56743 0.00000 0.00000
												CHANNELS 3 Zrotation Xrotation Yrotation
												End site
												{
													OFFSET 0.00000 0.00000 0.00000
												}
											}
										}
									}
									JOINT RightHandRing1
									{
										OFFSET -12.69180 0.00000 -3.06433
										CHANNELS 3 Zrotation Xrotation Yrotation
										JOINT RightHandRing2
										{
											OFFSET -5.62556 0.00000 0.00000
											CHANNELS 3 Zrotation Xrotation Yrotation
											JOINT RightHandRing3
											{
												OFFSET -3.56744 0.00000 0.00000
												CHANNELS 3 Zrotation Xrotation Yrotation
												End site
												{
													OFFSET 0.00000 0.00000 0.00000
												}
											}
										}
									}
									JOINT RightHandPinky1
									{
										OFFSET -11.11390 0.00000 -6.03719
										CHANNELS 3 Zrotation Xrotation Yrotation
										JOINT RightHandPinky2
										{
											OFFSET -4.52789 0.00000 0.00000
											CHANNELS 3 Zrotation Xrotation Yrotation
											JOINT RightHandPinky3
											{
												OFFSET -2.46976 0.00000 0.00000
												CHANNELS 3 Zrotation Xrotation Yrotation
												End site
												{
													OFFSET 0.00000 0.00000 0.00000
												}
											}
										}
									}
								}
							}
						}
					}
					JOINT LeftShoulder
					{
						OFFSET 0.01000 7.91373 5.19711
						CHANNELS 3 Zrotation Xrotation Yrotation
						JOINT LeftArm
						{
							OFFSET 18.41580 0.00000 0.00000
							CHANNELS 3 Zrotation Xrotation Yrotation
							JOINT LeftForeArm
							{
								OFFSET 29.11090 0.00000 0.00000
								CHANNELS 3 Zrotation Xrotation Yrotation
								JOINT LeftHand
								{
									OFFSET 24.65040 0.00000 0.00000
									CHANNELS 3 Zrotation Xrotation Yrotation
									JOINT LeftHandThumb1
									{
										OFFSET 5.35114 -0.85590 3.97906
										CHANNELS 3 Zrotation Xrotation Yrotation
										JOINT LeftHandThumb2
										{
											OFFSET 4.52789 0.00000 0.00000
											CHANNELS 3 Zrotation Xrotation Yrotation
											JOINT LeftHandThumb3
											{
												OFFSET 2.46977 0.00000 0.00000
												CHANNELS 3 Zrotation Xrotation Yrotation
												End site
												{
													OFFSET 0.00000 0.00000 0.00000
												}
											}
										}
									}
									JOINT LeftHandIndex1
									{
										OFFSET 14.26970 0.00000 2.88139
										CHANNELS 3 Zrotation Xrotation Yrotation
										JOINT LeftHandIndex2
										{
											OFFSET 5.48836 0.00000 0.00000
											CHANNELS 3 Zrotation Xrotation Yrotation
											JOINT LeftHandIndex3
											{
												OFFSET 3.01859 0.00000 0.00000
												CHANNELS 3 Zrotation Xrotation Yrotation
												End site
												{
													OFFSET 0.00000 0.00000 0.00000
												}
											}
										}
									}
									JOINT LeftHandMiddle1
									{
										OFFSET 14.26970 0.00000 -0.09147
										CHANNELS 3 Zrotation Xrotation Yrotation
										JOINT LeftHandMiddle2
										{
											OFFSET 6.17440 0.00000 0.00000
											CHANNELS 3 Zrotation Xrotation Yrotation
											JOINT LeftHandMiddle3
											{
												OFFSET 3.56744 0.00000 0.00000
												CHANNELS 3 Zrotation Xrotation Yrotation
												End site
												{
													OFFSET 0.00000 0.00000 0.00000
												}
											}
										}
									}
									JOINT LeftHandRing1
									{
										OFFSET 12.69180 0.00000 -3.06433
										CHANNELS 3 Zrotation Xrotation Yrotation
										JOINT LeftHandRing2
										{
											OFFSET 5.62556 0.00000 0.00000
											CHANNELS 3 Zrotation Xrotation Yrotation
											JOINT LeftHandRing3
											{
												OFFSET 3.56744 0.00000 0.00000
												CHANNELS 3 Zrotation Xrotation Yrotation
												End site
												{
													OFFSET 0.00000 0.00000 0.00000
												}
											}
										}
									}
									JOINT LeftHandPinky1
									{
										OFFSET 11.11390 0.00000 -6.03719
										CHANNELS 3 Zrotation Xrotation Yrotation
										JOINT LeftHandPinky2
										{
											OFFSET 4.52789 0.00000 0.00000
											CHANNELS 3 Zrotation Xrotation Yrotation
											JOINT LeftHandPinky3
											{
												OFFSET 2.46976 0.00000 0.00000
												CHANNELS 3 Zrotation Xrotation Yrotation
												End site
												{
													OFFSET 0.00000 0.00000 0.00000
												}
											}
										}
									}
								}
							}
						}
					}
					JOINT pCube4
					{
						OFFSET 0.00000 10.91090 1.10792
						CHANNELS 3 Zrotation Xrotation Yrotation
						End site
						{
							OFFSET 0.00000 0.00000 0.00000
						}
					}
				}
			}
		}
	}
	JOINT RightUpLeg
	{
		OFFSET -9.98441 0.00000 0.00000
		CHANNELS 3 Zrotation Xrotation Yrotation
		JOINT RightLeg
		{
			OFFSET 0.00000 -42.11790 0.00000
			CHANNELS 3 Zrotation Xrotation Yrotation
			JOINT RightFoot
			{
				OFFSET 0.00000 -45.00020 -0.00001
				CHANNELS 3 Zrotation Xrotation Yrotation
				JOINT RightForeFoot
				{
					OFFSET 0.00000 -3.74820 0.00000
					CHANNELS 3 Zrotation Xrotation Yrotation
					JOINT RightToeBase
					{
						OFFSET 0.00000 0.06325 14.43120
						CHANNELS 3 Zrotation Xrotation Yrotation
						End site
						{
							OFFSET 0.00000 0.00000 0.00000
						}
					}
				}
			}
		}
	}
	JOINT LeftUpLeg
	{
		OFFSET 9.98441 0.00000 0.00000
		CHANNELS 3 Zrotation Xrotation Yrotation
		JOINT LeftLeg
		{
			OFFSET 0.00000 -42.11800 0.00000
			CHANNELS 3 Zrotation Xrotation Yrotation
			JOINT LeftFoot
			{
				OFFSET 0.00000 -45.00070 0.00000
				CHANNELS 3 Zrotation Xrotation Yrotation
				JOINT LeftForeFoot
				{
					OFFSET 0.00000 -3.74824 0.00000
					CHANNELS 3 Zrotation Xrotation Yrotation
					JOINT LeftToeBase
					{
						OFFSET 0.00000 0.06325 14.43110
						CHANNELS 3 Zrotation Xrotation Yrotation
						End site
						{
							OFFSET 0.00000 0.00000 0.00000
						}
					}
				}
			}
		}
	}
}
MOTION
Frames: 4
Frame Time: 0.050000
0.012304666973830623 0.013059907073300795 0.0027467453689427605 -0.013092315845302127 0.033836920795517 -0.04533147166957267 6.311625874519449 1.614165560413286 -2.4833745124849833 -0.719529167077572 3.415591932668808 0.3751201266525029 -0.580904565760657 -1.2222200115372304 1.5946531864683795 -0.24521796998730808 -0.43860704635891906 -0.12385303202662765 0.26350134531236263 12.672006896860001 -1.7880356914675943 0.2930610128545632 -0.010527951572147976 -4.368744216593824 1.0649649237046732 -16.16962768696536 -0.37706893027695193 -10.799548509333317 3.7124852228929024 -17.177638805536233 79.6749025261553 13.622127432207138 20.46753150931718 0.8125284218535711 -3.0615194237535706 111.64754485360446 4.280192251036247 0.12935231031415487 1.7823089716304124 4.556122220829103 -0.11977485038225862 -1.6305132397554645 -0.008257936696110621 -0.01095363617338951 -56.203064033136506 -0.04776120380851586 0.0420860787406258 -56.246655928991125 -38.78639755424692 -0.009847264551345967 -0.020664451731041717 -0.003751007993935646 0.009191520029696965 -0.01374164849014683 0.011101188335848422 0.013993917550729495 -0.007294646089603705 -36.6524294188155 0.007780687873665218 -0.03491686912768705 -0.008419232666241781 -0.019684857897706833 0.02256690707222217 -0.0001644546021839117 -0.027561814751000592 -0.023466869672984406 -19.7261729793705 -0.024886918347646024 0.022359600934244682 0.049814641700717206 0.010902994814070447 -0.004539402830390755 0.04197687838146736 0.0015974585020091725 0.027038419822588214 24.10345800247669 -0.0068384504353150525 -0.02160932295136033 28.819695445251636 -0.022637322294949944 0.004029128557050457 28.85634242817136 0.012987766887617913 -0.014666542471837248 10.926626870691859 2.4366877360298007 14.837087353690928 -73.28334983549053 23.978395766063045 -18.791424890959302 6.906148127189931 -7.706084331066312 -101.51321310748244 -5.84759432282037 -4.8570543676759375 -2.12052747143434 -0.45629443227887345 0.09176164314906661 -8.135696815829812 -0.01695395463031059 0.004500656465811618 44.57114662078605 0.013606045630291691 0.041519042417463174 44.54122135016314 12.477657237222337 0.004272814002848357 -0.0011161859180373558 0.00651937034816111 0.04482037538622518 0.022587911449237462 -0.003800168478291466 -0.01381104488167889 0.0044252295895129195 11.097161564207221 0.007048423963354897 -0.0014807237234052235 0.022256008508855434 0.029366883739904526 0.03645115106880504 0.02821612888263983 -0.007350631643643774 -0.032252183972385134 4.814795746129978 -0.02969795644893287 -0.017642854779236054 0.0210597800403866 -0.011794383126244683 -0.008322515268016388 0.022883025762246226 0.01520011334847443 -0.015262144725196982 -5.618304410059076 -0.015824307867794325 0.03514607169683808 -6.7642646723669015 0.0293245260647764 -0.019965755623925194 -6.755795333303442 -0.023239952725741617 -0.037892297009241065 -0.025945464386630226 0.036226059979965 0.0023277589841983934 8.008057066372535 3.4562741122961356 -19.176141836606966 0.03909088635961371 10.44396367946196 0.017408110454467184 -5.6005659868054565 -15.704930710066412 3.2186512959152656 0.04591109741566216 0.019955636814854703 0.002836450123496291 0.039705279949233875 4.715158186233526 0.00432189234435128 12.49858594613354 -8.25382624822363 6.881903126532792 0.024201190020448023 46.3563166312943 0.04502601982544582 -4.322784784124317 -14.795366434865228 -3.8761344915672074 0.008336184967444184 0.049774578075424084 -0.04515233787855189 0.02406542926442818 -10.743592857073539 0.0394360868325635 
-0.021360971289193308 -0.019608635247478953 0.003275993169645993 0.013058829548443524 0.01552543124596392 -0.015210161368910582 6.357660341835979 1.6652203838358848 -2.5126008971316507 -0.7209020819580179 3.447701655670177 0.39128865425451276 -0.5740136806526378 -1.2862120729310242 1.724506989419603 -0.2657813270280716 -0.45735777797877464 -0.12325175377933383 0.29642248368494717 12.922862823110517 -1.986963440529931 0.3088397921720762 0.06775614094928711 -4.962766671001553 1.035980082127946 -16.175937474224618 -0.41463196446156864 -11.166799133341144 3.7519681916337206 -17.102372991960216 78.11971778351544 12.040692243301997 22.381641516590545 1.18627872679898 -2.830385845506767 111.30574907370783 4.024545362567251 0.12024467090164699 1.8802088900743883 4.527071891767448 -0.13575582168144135 -1.624566822215275 0.040058469595885215 -0.02650036256200171 -56.24569632267814 0.03805015027144646 0.04100083115648519 -56.22014380025668 -38.80107772014993 0.0434312646560018 0.035499940238064284 0.015437150907281616 -0.021529071796417467 0.03394091036215171 -0.0008243435159094359 0.0346859191543882 -0.04717781908047859 -36.65134668158364 -0.03488772239137254 -0.0008048666416371636 0.00708570678325705 -0.012194614859777865 -0.00279451893378702 0.018232593264941976 0.006016264978613099 0.009837294128805237 -19.79617289543933 0.01572680131551914 -0.001926257412238215 -0.04226615448944628 0.0004294909162643511 -0.0058386144581172306 0.025179588244414203 0.027452179737678405 -0.032957443886033735 24.030473678700744 0.041801093675557184 -0.04501429020662335 28.90608291185166 -0.021816544140347366 -0.04793977518488239 28.842289240137738 0.040264787727284215 -0.002499309121433853 11.072470767751339 2.551401134517185 14.865366284329788 -72.5343868069955 22.332127882909557 -19.64355471127461 6.805836429793187 -7.1081997578114 -101.2402990175902 -5.719736233095823 -4.228017882700414 -2.6356475469075105 -0.47983935863198923 0.04497701218391349 -8.11549178056445 -0.037108169834225886 0.03740454099606735 44.54198944179671 -0.016084168679948156 -0.03302487793589942 44.593700090542264 12.483673363899229 0.0025362767662960566 -0.0007115888429608867 0.001611124131292486 -0.016387197755921484 -0.004483114043475665 -0.03404539446541956 -0.03386678431478558 0.028825325115749888 11.118960449795427 0.011344682896529274 -0.03358967157251433 0.016144457905340436 0.033691020508865986 -0.03356672694326962 0.02029093707647253 0.016128463108920042 -0.042688962015331 4.791223005316905 0.008058054876465858 -0.022258894151176534 0.003237934784754623 0.04882068019811863 -0.02994890578204208 -0.04202801867078262 0.0037530384802944836 -0.010077472063392857 -5.5811479745205625 -0.038695966216371905 -0.00016308274074663514 -6.732927272276605 0.04015495304437901 -0.031193618890895076 -6.679749114439585 0.022729954584547657 0.026765159962176155 -0.017838058287438 -0.005637813882798979 -0.017656965252061466 8.022785469969783 3.4896623339558146 -19.252991861547883 -0.016739177894754726 10.381767035968986 -0.006057300981141791 -5.612128981477173 -15.673251704132184 3.222555381822824 0.04294036944301554 -0.04102988151833381 0.020611279662067702 0.0018368829060343079 4.6785346016536895 0.004585818346230687 12.496526304254706 -8.229002856093848 6.8944028816843845 -0.03506396378548422 46.41863632400949 0.011064621373261514 -4.304230965051776 -14.716333667841846 -3.811335809104656 0.003712040117701841 0.037629829468224504 -0.017747477638551334 -0.027315333560511947 -10.76009056655899 0.04830759389888768 
0.007345850917565512 -0.01690854993015722 -0.001001023608016194 -0.02312532531049232 -0.04985456497446262 -0.00661114202143586 6.558049586060362 1.7853724855271018 -2.51541875124564 -0.7006963942687988 3.549938446078575 0.41721008366459156 -0.501100478126275 -1.2552776569070543 1.8664035262491125 -0.19517482114975163 -0.5482194556346626 -0.15709436189084347 0.33688513907800194 13.338692253810336 -2.2487217293745765 0.22475188772019253 0.1891323431966414 -5.6721130663361246 1.0469436364165157 -16.02626541395196 -0.490864031677301 -11.627393186519894 3.8555527713523285 -16.99518271552142 76.08643475349685 10.158724012451856 25.362904766968956 0.6917576951766637 -2.8012087334382723 110.7817892470366 3.840371369855427 0.15239303471508003 2.030904726515733 4.511070013501633 -0.12564736347256722 -1.5478004288750704 -0.015873497193330813 0.040123970696328795 -56.21035031089756 0.0361483556107751 0.02516254684971408 -56.249393377142866 -38.78807271133375 -0.04134512496273991 0.00013655269862087352 0.019861586925665527 0.01573384836965354 0.03947879718034781 -0.04882517900589613 -0.027637824305269433 0.022204706456584806 -36.67494795820725 -0.0012427841216194808 -0.03684382573166232 0.0036358228242141903 -0.02943462920465903 0.011394675464827097 -0.026672357553021196 -0.02811558422215765 0.014100677154795337 -19.762898356004197 0.029087342222052504 0.02364130335980548 -0.0011276927830502646 -0.04711490998427107 0.006682363887229218 -0.031208800748993477 0.012920774743501869 -0.0029899586071664153 24.029919533876125 -0.02444475067076564 -0.04023590880886879 28.82948586184966 0.009144507590266627 0.043024872190978045 28.865585443198245 -0.02436156195415121 -0.028202507957774545 11.456348145358145 2.6047463340052923 14.894205635390747 -71.12153412351734 20.295457794462777 -21.842276775446862 8.13358487984187 -6.821664401124208 -101.63598217673022 -5.390419565830171 -3.2185528005878217 -3.4166719285363616 -0.45708168232932556 0.09218925244352073 -8.086268711129119 0.03894819763850795 0.01954055519909462 44.518089048413515 -0.017191280107978216 -0.011182980460774709 44.60449612564738 12.446631733491808 -0.046323902854816745 0.023849393191078684 -0.04205392415624004 -0.03576845964358098 0.0028951760559242532 -0.039639939342745616 -0.025049585427494435 -0.01351793224838681 11.140571500366853 0.029072036136980728 0.013307286724971286 -0.0024186598574806157 -0.04035634393530222 -0.004691604798295991 -0.01616506449880372 -0.005889826892229861 0.028718148683199732 4.72778602779018 0.04750221156095036 0.03405479814793958 0.005546311355281432 0.016469142157238416 -0.038404667684976704 0.0023847301683930103 -0.0324860574706387 0.013244371041903173 -5.605425480198722 -0.0057518384334184 0.019530064764643175 -6.726785764095363 0.008181184315265357 -0.00423917101080268 -6.715310518361869 0.028099648391985112 0.014301427164236612 0.01672430004756584 -0.02092325739313167 -0.048408146574076195 8.037208069225917 3.4860336783165655 -19.25916745066295 0.0319059625028448 10.403871645240828 0.053221423471161655 -5.636159704149661 -15.63064203790747 3.2066787144691866 -0.03237793778186004 -0.01447273062001532 0.01240697300033986 0.005290753338764044 4.736148536658412 0.03653852565336523 12.486249838328026 -8.279690265458742 6.900461996007066 -0.01998590943588635 46.37244159379612 0.0024737859050572774 -4.283115277598549 -14.72814092962224 -3.852100343051715 0.03456537125741058 -0.04830605884780402 0.009247310945099485 -0.002737464290731246 -10.735935431463384 -0.02715671935675794 
0.041846358723039996 0.0004455610588606647 -0.017272724819303937 -0.003799075106356515 0.024866246638044383 0.006519823784567811 6.633056084246627 1.9051964294480963 -2.435405807654379 -0.7292504143608071 3.537372321685365 0.37423681517080704 -0.5359455794223547 -1.2945538668285128 1.9809436241072618 -0.1997931597369663 -0.5554715467821671 -0.0998480152930153 0.3931637141101593 13.648665331288676 -2.449330977628602 0.186229175338017 0.288998379381294 -6.311209211418787 1.1816392925805161 -15.9533428100998 -0.5424871844812362 -12.130202358979817 3.989551718884366 -16.794320225775113 74.02908772109797 8.735175895783653 28.479041275047585 -0.7167948835558517 -2.7487628596976457 110.20308315794048 3.9056363640761806 0.1526194407690552 2.2304849625711394 4.495303918235948 -0.14202616756392067 -1.592813314766487 0.048016885966033415 0.004497711602574417 -56.20820807915866 0.005242180991280346 0.0055271474373057685 -56.279482840058535 -38.79830879055825 0.04076826838950416 -0.01163947029997817 0.04439928334603478 0.04624928145810732 0.011149145977426079 0.0032760571397553446 0.04748512756030994 0.009067794811189233 -36.73883164985959 0.00027996031343138924 0.025667715415243382 -0.04202060701484239 0.04941271185949774 0.005584239050015817 -0.019711838948343406 0.03918021184402057 -0.029407611681875917 -19.78110575059126 -0.042520470201683945 -0.023764669058148554 -0.03025774473950693 0.015598918446329272 0.024480501083000778 -0.048313818637605525 0.04835357169968563 0.021938502390020268 24.039131001202705 0.042688842026650874 0.03691461021221288 28.830458379502456 0.03889764341943079 -0.011926254505119572 28.862771396782673 0.015043112939403304 -0.04125115537312569 11.76735782409572 2.609263808809996 14.860971112494575 -69.44821819132486 18.702793257942297 -24.72181379985106 10.243577606866667 -6.82880003824529 -102.39646156291533 -5.174469190532466 -2.096829049005829 -4.153309633170969 -0.48697480097066786 0.036971419639934305 -8.123491722305674 0.022050105770218032 0.021060908961860064 44.52338353513674 0.008819098428718749 -0.034899493020580916 44.57306910827027 12.475786877890178 -0.011499270693689 0.04595558994074564 0.03153306476960179 0.028970240126622047 -0.007620482024026716 -0.013115895965070583 -0.024868389259850587 0.017136887851945726 11.133557299939723 -0.032335536855617165 -0.020953427473579395 0.02438206443057474 -0.024691412191954674 -0.005635567850233352 0.022641991475351664 -0.033006200705741784 -0.04663944962347899 4.796896329308006 -0.03172041093347893 0.036332389724867 -0.00042496923642820886 0.03508034814081995 0.01607110558210253 -0.02056522729155154 -0.01229645222071699 0.037447284708859836 -5.575437237951089 -0.026947166671134126 -0.0029034519311537 -6.68219271169388 0.008801639530509405 0.012646590713380564 -6.741537615114742 0.00897620282087585 -0.012641498079986985 -0.014508392533703951 0.02904664250044179 0.006865985688415456 8.032123550011754 3.4492046305524413 -19.25374729257436 0.014595263970829437 10.380336376204264 -0.0034607609250345284 -5.585229657556719 -15.682494453521647 3.1957008578231814 0.03699053630023823 0.00023489331200316009 -0.020445840793414393 0.026435159462500295 4.670155516180837 0.014423665017193008 12.509243675272888 -8.266961255802862 6.877679337044497 0.04437161858707083 46.37873197530458 0.023490313634312615 -4.337922550320297 -14.773160571775907 -3.865509701760176 -0.02260700108633788 0.031044635196749527 -0.02084834404603072 -0.04681849725117846 -10.756037345156786 -1.0122448772766318e-05 
